<svg width="900" height="900" viewBox="0 0 900 900" fill="none" xmlns="http://www.w3.org/2000/svg">
<circle cx="450" cy="450" r="450" fill="url(#paint0_linear_620_26)"/>
<path d="M659.562 563H528.562L507.562 625H418.062L545.062 274H644.062L771.063 625H680.562L659.562 563ZM637.562 497L594.062 368.5L551.062 497H637.562Z" fill="white"/>
<path d="M372 274V513C372 550 361.5 578.5 340.5 598.5C319.833 618.5 291.833 628.5 256.5 628.5C219.5 628.5 189.833 618 167.5 597C145.167 576 134 546.167 134 507.5H219C219 522.167 222 533.333 228 541C234 548.333 242.667 552 254 552C264.333 552 272.333 548.667 278 542C283.667 535.333 286.5 525.667 286.5 513V274H372Z" fill="white"/>
<defs>
<linearGradient id="paint0_linear_620_26" x1="450" y1="0" x2="450" y2="900" gradientUnits="userSpaceOnUse">
<stop stop-color="#02B6DF"/>
<stop offset="1" stop-color="#2E049E"/>
</linearGradient>
</defs>
</svg>
